<?xml version="1.0" encoding="utf-8"?>
<svg version="1.1" id="layer" xmlns="http://www.w3.org/2000/svg" xmlns:xlink="http://www.w3.org/1999/xlink" x="0px" y="0px"
	 width="40px" height="40px" viewBox="0 0 40 40" style="enable-background:new 0 0 40 40;" xml:space="preserve">
<style type="text/css">
	.st0{fill:#EBEBEF;}
</style>
<path id="long_1_" class="st0" d="M32.77,21.5H20c-0.828,0-1.5-0.672-1.5-1.5v0c0-0.828,0.672-1.5,1.5-1.5h12.77
	c0.679,0,1.23,0.551,1.23,1.23v0.539C34,20.949,33.449,21.5,32.77,21.5z"/>
<path id="circle" class="st0" d="M20,0C8.954,0,0,8.954,0,20c0,11.046,8.954,20,20,20s20-8.954,20-20C40,8.954,31.046,0,20,0z
	 M20,37.5c-9.665,0-17.5-7.835-17.5-17.5S10.335,2.5,20,2.5S37.5,10.335,37.5,20S29.665,37.5,20,37.5z"/>
</svg>
